<svg width="346" height="1441" viewBox="0 0 346 1441" fill="none" xmlns="http://www.w3.org/2000/svg">
<path d="M239 1412C239 1412 194.396 1445.95 136.5 1430.5C76.7202 1414.55 23.5002 1383.87 23.5002 1322C23.5002 1258.5 20.7579 1224.68 23.5001 1165C26.6766 1095.87 -15.9747 1043.34 23.5002 986.5C58.7194 935.792 120.898 930.347 176 902.5C226.504 876.977 280.413 899.45 312 852.5C342.083 807.786 319.031 762.238 295 714C272.522 668.881 255.753 657.638 211.5 633.5C167.592 609.55 92.2831 610.312 52.5 580C17.4893 553.324 4.3267 553.317 8.50001 509.5C13.2146 460 129.268 520.91 192.5 502C235.935 489.011 265.313 481.763 295 447.5C331.595 405.263 347.907 379.49 335.5 325C323.044 270.296 262.076 250.175 238 199.5C214.779 150.626 202.746 116.897 211.5 63.5C216.317 34.1137 234 6 234 6" stroke="#373D32" stroke-width="12" stroke-linecap="round" stroke-linejoin="round" stroke-dasharray="1 28"/>
</svg>
